PathFileType	4	(X/Y/Z)	TVC_9_BWA2_walk_RCNL2025.trc
DataRate	CameraRate	NumFrames	NumMarkers	Units	OrigDataRate	OrigDataStartFrame	OrigNumFrames
100	100	7	27	mm	100	183	364
Frame#	Time	R_Shoulder			L_Shoulder			C7			J_Notch			R_Elbow			L_Elbow			R_Wrist			L_Wrist			R_Asis			L_Asis			R_Psis			L_Psis			Sacral			Thoracic			Sternum			R_Thigh_Lateral			R_Knee_Lateral			R_Shank_Lateral			R_Ankle_Lateral			R_Heel			R_Toe			L_Thigh_Lateral			L_Knee_Lateral			L_Shank_Lateral			L_Ankle_Lateral			L_Heel			L_Toe		
		X1	Y1	Z1	X2	Y2	Z2	X3	Y3	Z3	X4	Y4	Z4	X5	Y5	Z5	X6	Y6	Z6	X7	Y7	Z7	X8	Y8	Z8	X9	Y9	Z9	X10	Y10	Z10	X11	Y11	Z11	X12	Y12	Z12	X13	Y13	Z13	X14	Y14	Z14	X15	Y15	Z15	X16	Y16	Z16	X17	Y17	Z17	X18	Y18	Z18	X19	Y19	Z19	X20	Y20	Z20	X21	Y21	Z21	X22	Y22	Z22	X23	Y23	Z23	X24	Y24	Z24	X25	Y25	Z25	X26	Y26	Z26	X27	Y27	Z27
183	1.82000000	-953.935730	1366.745850	174.562973	-969.338074	1351.620728	-221.175140	-1020.636780	1421.762451	-31.476278	-864.406982	1327.897095	-16.124708	-991.959961	1091.645874	348.552368	-1043.180054	1012.275085	-270.279388	-779.499146	966.224030	310.673950	-969.792236	779.471802	-263.759239	-924.222717	923.352234	159.626984	-919.783936	917.162170	-143.069382	-1119.286865	938.723206	59.139355	-1116.798340	931.311096	-40.882668	-1118.042603	935.017151	9.128344	-1114.901489	1145.459473	-2.709404	-802.935486	1142.295776	-7.173512	-1048.897583	525.809631	229.076370	-1068.171021	447.945801	165.131958	-1154.180420	315.899078	210.189697	-1301.274048	141.365463	133.835510	-1350.168091	169.450165	76.206688	-1220.371094	45.779079	83.010551	-831.790833	570.879395	-188.576950	-818.116882	445.968109	-134.289429	-812.662964	301.604034	-184.261078	-840.218079	76.509552	-116.603096	-898.032166	49.691444	-66.246460	-704.054321	44.405125	-78.032822
184	1.83000000	-943.602966	1367.216797	173.341721	-958.746338	1352.557983	-222.350296	-1010.332031	1422.798828	-32.622841	-854.338562	1328.578491	-17.317076	-985.778503	1090.681152	344.740753	-1030.113037	1012.703308	-272.378387	-776.309479	959.679535	308.554825	-954.687408	780.636108	-266.228500	-915.227966	923.806519	157.651596	-910.890320	918.183777	-144.550171	-1110.289917	939.581787	57.350491	-1107.802124	932.869019	-42.875416	-1109.046021	936.225403	7.237537	-1105.279175	1146.660522	-4.342025	-793.076538	1142.964844	-8.658206	-1032.978149	524.651184	228.329147	-1050.632080	447.191589	164.719910	-1139.978638	317.930328	210.016556	-1292.346924	148.772873	133.577118	-1339.313110	179.423828	75.754730	-1217.263184	47.845364	83.182281	-827.963501	570.594727	-190.101501	-814.132385	445.322479	-135.528656	-810.633911	300.733337	-184.922821	-839.717407	76.312820	-116.762749	-897.673645	49.850250	-66.316299	-703.804199	43.939693	-78.325836
185	1.84000000	-933.440918	1367.703003	172.160721	-948.105408	1353.459473	-223.491730	-1000.069397	1423.848267	-33.768230	-844.338684	1329.242188	-18.446959	-979.801880	1089.743408	340.900360	-1016.845520	1013.107605	-274.475647	-773.668884	952.883606	306.433868	-939.277466	781.841400	-268.691727	-906.410034	924.251709	155.797089	-902.180359	919.146667	-145.967316	-1101.428467	940.458252	55.590458	-1098.942749	934.445984	-44.816380	-1100.185608	937.452118	5.387039	-1095.750488	1147.903076	-5.991391	-783.367310	1143.566895	-10.044121	-1015.489746	523.290710	227.753204	-1032.169556	446.423889	164.243607	-1124.484497	319.854462	209.739670	-1282.332520	156.569412	133.262817	-1327.458130	189.643829	75.309349	-1213.018799	50.753971	83.321396	-824.598572	570.242371	-191.431351	-810.325623	444.717865	-136.579803	-808.447449	299.979889	-185.344177	-839.345520	76.159401	-116.853973	-897.449036	49.941193	-66.338058	-703.665405	43.688698	-78.417931
186	1.85000000	-923.468323	1368.199341	171.029160	-937.436584	1354.311035	-224.592545	-989.863342	1424.899658	-34.906998	-834.419067	1329.880859	-19.508211	-974.048157	1088.839355	337.052246	-1003.396362	1013.479980	-276.563416	-771.593262	945.908752	304.314621	-923.586517	783.062988	-271.159203	-897.762878	924.675354	154.070694	-893.663391	920.041626	-147.337036	-1092.704102	941.348328	53.873405	-1090.222656	936.028015	-46.688629	-1091.463379	938.688171	3.592388	-1086.322510	1149.175537	-7.645785	-773.818604	1144.090210	-11.327030	-996.601624	521.847351	227.303467	-1012.915649	445.710907	163.679749	-1107.767334	321.646027	209.316833	-1271.202759	164.621796	132.894501	-1314.670654	199.892715	74.880547	-1207.330444	54.563610	83.394981	-821.257446	569.926697	-192.564896	-806.603210	444.163361	-137.441376	-806.113159	299.324310	-185.582718	-839.058899	76.044930	-116.894218	-897.323914	49.988895	-66.331032	-703.601868	43.588291	-78.367599
187	1.86000000	-913.697327	1368.701538	169.955795	-926.763306	1355.101562	-225.645966	-979.726624	1425.943726	-36.032608	-824.589355	1330.488770	-20.495256	-968.533630	1087.977173	333.215820	-989.786377	1013.814697	-278.632233	-770.094879	938.828644	302.201096	-907.640656	784.284363	-273.634216	-889.277039	925.068909	152.476410	-885.338806	920.865479	-148.673416	-1084.115601	942.248840	52.213406	-1081.641479	937.603088	-48.476524	-1082.878540	939.925964	1.868441	-1076.999756	1150.467651	-9.292379	-764.436035	1144.527832	-12.503078	-976.657471	520.473694	226.903336	-993.017395	445.125519	163.007446	-1089.947266	323.309631	208.711777	-1258.947021	172.769775	132.470383	-1301.027588	209.933746	74.465584	-1199.911011	59.264381	83.377480	-817.560730	569.711548	-193.507965	-802.901978	443.658997	-138.124268	-803.683105	298.736237	-185.696518	-838.820312	75.963211	-116.898766	-897.263794	50.014179	-66.307060	-703.581421	43.582352	-78.235619
188	1.87000000	-904.133972	1369.206299	168.948608	-916.110535	1355.823242	-226.645645	-969.669678	1426.972656	-37.137848	-814.856750	1331.062500	-21.403214	-963.271851	1087.166382	329.408356	-976.036987	1014.108154	-280.671356	-769.181763	931.716461	300.097824	-891.465118	785.499176	-276.107170	-880.940735	925.428040	151.014832	-877.196228	921.621033	-149.986710	-1075.659180	943.158142	50.623924	-1073.196533	939.161316	-50.166386	-1074.427856	941.159729	0.228769	-1067.785278	1151.770142	-10.917805	-755.220093	1144.878418	-13.568392	-956.129333	519.326965	226.457138	-972.629822	444.740204	162.210342	-1071.192993	324.885132	207.900528	-1245.572144	180.833359	131.985992	-1286.607056	219.523743	74.050171	-1190.521606	64.769249	83.255707	-813.243225	569.614624	-194.268509	-799.190857	443.198059	-138.648041	-801.220459	298.184418	-185.732529	-838.600342	75.907356	-116.879143	-897.237244	50.033821	-66.270676	-703.577087	43.625156	-78.073166
189	1.88000000	-894.778687	1369.711914	168.014343	-905.503723	1356.471802	-227.585999	-959.700989	1427.980469	-38.215244	-805.226501	1331.600342	-22.228008	-958.272461	1086.418579	325.645050	-962.170349	1014.359741	-282.669098	-768.857117	924.643677	298.009827	-875.083008	786.707520	-278.559914	-872.740417	925.752869	149.683289	-869.218140	922.316406	-151.282135	-1067.328735	944.075378	49.117317	-1064.882812	940.695374	-51.747070	-1066.105774	942.385376	-1.314877	-1058.679688	1153.075073	-12.508697	-746.166626	1145.145386	-14.518909	-935.533325	518.535034	225.868866	-951.908325	444.621643	161.278244	-1051.709229	326.442993	206.875443	-1231.099121	188.621063	131.435638	-1271.478149	228.425491	73.611542	-1178.997314	70.911827	83.031898	-808.185791	569.615417	-194.855301	-795.468384	442.769928	-139.037521	-798.782043	297.645477	-185.723938	-838.378540	75.870827	-116.843079	-897.218384	50.060932	-66.221497	-703.567566	43.681831	-77.915726
